<?xml version="1.0" encoding="UTF-8" standalone="no"?>
<svg width="17px" height="19px" viewBox="0 0 17 19" version="1.1" xmlns="http://www.w3.org/2000/svg" xmlns:xlink="http://www.w3.org/1999/xlink">
    <!-- Generator: Sketch 39.1 (31720) - http://www.bohemiancoding.com/sketch -->
    <title>Slice 1</title>
    <desc>Created with Sketch.</desc>
    <defs></defs>
    <g id="Page-1" stroke="none" stroke-width="1" fill="none" fill-rule="evenodd">
        <path d="M15.4504603,10.4676018 L15.4504603,10.4763686 C15.4504603,14.3234382 12.346474,17.4531789 8.49354358,17.4531789 C4.64035487,17.4531789 1.5340443,14.3234382 1.5340443,10.4763686 C1.5340443,6.65379439 4.60368244,3.54107157 8.47753167,3.50213675 L8.47753167,4.7764141 C8.47753167,5.50869813 9.13350348,5.52752093 9.49687054,5.20108727 L12.1708595,3.21205945 C12.1708595,3.21205945 12.462173,2.96916806 12.462173,2.70178125 C12.462173,2.42098642 12.1659527,2.19150305 12.1659527,2.19150305 L9.49764531,0.202475229 C9.13427825,-0.123958427 8.47753167,-0.104877787 8.47753167,0.627148397 L8.47753167,1.95479997 C3.82891259,1.99373479 0,5.80058036 0,10.4761108 C0,15.1763944 3.79275666,19 8.50025826,19 C13.2072433,19.0002578 17,15.1766523 17,10.4763686 L17,10.4676018 C17,10.4676018 17,9.59736992 16.2156747,9.59736992 C15.4786103,9.59711207 15.4504603,10.4676018 15.4504603,10.4676018 L15.4504603,10.4676018 Z" id="Shape" fill="#FFFFFF"></path>
    </g>
</svg>