<?xml version="1.0" encoding="UTF-8" standalone="no"?>
<svg width="79px" height="79px" viewBox="0 0 79 79" version="1.1" xmlns="http://www.w3.org/2000/svg" xmlns:xlink="http://www.w3.org/1999/xlink">
    <!-- Generator: Sketch 39.1 (31720) - http://www.bohemiancoding.com/sketch -->
    <title>Slice 1</title>
    <desc>Created with Sketch.</desc>
    <defs>
        <circle id="path-1" cx="39.5" cy="39.5" r="39.5"></circle>
        <mask id="mask-2" maskContentUnits="userSpaceOnUse" maskUnits="objectBoundingBox" x="0" y="0" width="79" height="79" fill="white">
            <use xlink:href="#path-1"></use>
        </mask>
    </defs>
    <g id="Page-1" stroke="none" stroke-width="1" fill="none" fill-rule="evenodd">
        <use id="Oval-7" stroke="#F8C761" mask="url(#mask-2)" stroke-width="4" xlink:href="#path-1"></use>
        <path d="M51.015697,52.1388475 C47.9160602,54.8584744 43.9357071,56.3569045 39.8088314,56.3569045 C30.4366598,56.3569045 22.8116904,48.7319351 22.8116904,39.3597635 C22.8116904,37.1345184 23.2554745,34.9888593 24.0861202,32.9554639 L26.6033563,39.1015044 C26.6913752,39.3165447 26.8995637,39.4467283 27.1182934,39.4467283 C27.1889193,39.4467283 27.2605994,39.4335519 27.3291172,39.4056177 C27.6137293,39.2896646 27.7491836,38.964996 27.6332305,38.6803839 L24.4139512,30.8198189 L16.551805,34.038044 C16.2671929,34.1539971 16.1317386,34.4786657 16.2476917,34.7632779 C16.3636448,35.04789 16.693057,35.1833443 16.9729256,35.0673912 L23.0377989,32.5838869 C22.1660426,34.7363978 21.6995949,37.00697 21.6995949,39.3597635 C21.6995949,49.3454323 29.8231626,57.469 39.8088314,57.469 C44.2060886,57.469 48.445755,55.8730639 51.7498908,52.9752909 C51.9802158,52.772373 52.0028794,52.4213514 51.8010156,52.1904994 C51.5986248,51.9596473 51.2481302,51.9364567 51.015697,52.1388475 L51.015697,52.1388475 Z M63.3615381,39.6264556 C63.1781214,39.3787377 62.8297351,39.3291941 62.5841254,39.5136649 L57.4737567,43.325359 C57.7631124,42.0282656 57.9175408,40.6995487 57.9175408,39.3592365 C57.9175408,29.3735677 49.7939731,21.25 39.8083043,21.25 C36.4187848,21.25 33.1135949,22.1923823 30.2484996,23.9754245 C29.9881322,24.1382859 29.9085462,24.4814016 30.0703535,24.741769 C30.2332149,25.0010823 30.5763306,25.0817224 30.836698,24.9199151 C33.5236472,23.2465013 36.6269733,22.3620955 39.8083043,22.3620955 C49.1804759,22.3620955 56.8054453,29.9870649 56.8054453,39.3592365 C56.8054453,40.7401323 56.6304616,42.1089057 56.3026306,43.4392039 L52.2521785,38.0110183 C52.0677077,37.7633004 51.7193214,37.7132297 51.4747658,37.8982276 C51.228102,38.0816443 51.1785584,38.4300306 51.3619751,38.6756403 L56.4412472,45.4841946 L63.2487474,40.4038683 C63.4948842,40.2204517 63.5449548,39.8720653 63.3615381,39.6264556 L63.3615381,39.6264556 Z" id="Shape" stroke="#F8C761" fill="#F8C761"></path>
    </g>
</svg>