<?xml version="1.0" encoding="UTF-8" standalone="no"?>
<svg width="79px" height="79px" viewBox="0 0 79 79" version="1.1" xmlns="http://www.w3.org/2000/svg" xmlns:xlink="http://www.w3.org/1999/xlink">
    <!-- Generator: Sketch 39.1 (31720) - http://www.bohemiancoding.com/sketch -->
    <title>Slice 1</title>
    <desc>Created with Sketch.</desc>
    <defs>
        <circle id="path-1" cx="39.5" cy="39.5" r="39.5"></circle>
        <mask id="mask-2" maskContentUnits="userSpaceOnUse" maskUnits="objectBoundingBox" x="0" y="0" width="79" height="79" fill="white">
            <use xlink:href="#path-1"></use>
        </mask>
    </defs>
    <g id="Page-1" stroke="none" stroke-width="1" fill="none" fill-rule="evenodd">
        <g id="Group">
            <g id="Group-2">
                <use id="Oval-7" stroke="#F8C761" mask="url(#mask-2)" stroke-width="4" xlink:href="#path-1"></use>
                <path d="M49.0022676,53.9968701 L47.0068027,53.9968701 L47.0068027,48.5383412 C47.0068027,44.8826291 45.3605442,42.428795 41.4195011,40.4256651 C45.2108844,38.4726135 46.9569161,36.0187793 46.9569161,32.7636933 L46.9569161,26.0031299 L48.952381,26.0031299 C49.5011338,26.0031299 49.9501134,25.5524257 49.9501134,25.0015649 C49.9501134,24.4507042 49.5011338,24 48.952381,24 L28.9977324,24 C28.4489796,24 28,24.4507042 28,25.0015649 C28,25.5524257 28.4489796,26.0031299 28.9977324,26.0031299 L31.0430839,26.0031299 L31.0430839,32.7636933 C31.0430839,36.0187793 32.7891156,38.5226917 36.5804989,40.4256651 C32.6394558,42.428795 31.0430839,44.8826291 31.0430839,48.5383412 L31.0430839,53.9968701 L28.9977324,53.9968701 C28.4489796,53.9968701 28,54.4475743 28,54.9984351 C28,55.5492958 28.4489796,56 28.9977324,56 L49.0022676,56 C49.5510204,56 50,55.5492958 50,54.9984351 C50,54.4475743 49.5510204,53.9968701 49.0022676,53.9968701 L49.0022676,53.9968701 Z M33.0385488,32.7636933 L33.0385488,26.0031299 L45.0113379,26.0031299 L45.0113379,32.7636933 C45.0113379,34.6666667 44.3628118,37.170579 39.0249433,39.3740219 C33.6870748,37.1205008 33.0385488,34.6666667 33.0385488,32.7636933 L33.0385488,32.7636933 Z M32.9886621,48.5383412 C32.9886621,45.7339593 33.9863946,43.5805947 38.9750567,41.5273865 C43.9637188,43.6306729 45.0113379,45.7840376 45.0113379,48.5383412 L45.0113379,53.9968701 L33.0385488,53.9968701 C33.0385488,52.9452269 32.9886621,50.942097 32.9886621,48.5383412 L32.9886621,48.5383412 Z" id="Shape" fill="#F8C761"></path>
            </g>
        </g>
    </g>
</svg>
