<?xml version="1.0" encoding="UTF-8" standalone="no"?>
<svg width="79px" height="79px" viewBox="0 0 79 79" version="1.1" xmlns="http://www.w3.org/2000/svg" xmlns:xlink="http://www.w3.org/1999/xlink">
    <!-- Generator: Sketch 39.1 (31720) - http://www.bohemiancoding.com/sketch -->
    <title>Slice 1</title>
    <desc>Created with Sketch.</desc>
    <defs>
        <circle id="path-1" cx="39.5" cy="39.5" r="39.5"></circle>
        <mask id="mask-2" maskContentUnits="userSpaceOnUse" maskUnits="objectBoundingBox" x="0" y="0" width="79" height="79" fill="white">
            <use xlink:href="#path-1"></use>
        </mask>
    </defs>
    <g id="Page-1" stroke="none" stroke-width="1" fill="none" fill-rule="evenodd">
        <g id="Group" stroke="#EB6345">
            <use id="Oval-7" mask="url(#mask-2)" stroke-width="4" xlink:href="#path-1"></use>
            <path d="M51.9648649,36.195 C51.9074324,36.0790909 51.7898649,36.0054545 51.6621622,36.0054545 L47.8959459,36.0054545 C47.8824324,36.0040909 47.8695946,36.0034091 47.8560811,36.0034091 L42.8763514,36.0034091 L48.1797297,18.4404545 C48.227027,18.2829545 48.1560811,18.1131818 48.0101351,18.0381818 C47.8655405,17.9625 47.6864865,18.0040909 47.5878378,18.135 L33.9959459,36.1384091 L27.7439189,44.4477273 C27.6662162,44.5506818 27.6533784,44.6890909 27.7108108,44.8056818 C27.7675676,44.9215909 27.8851351,44.9945455 28.0135135,44.9945455 L31.7824324,44.9945455 C31.7945946,44.9959091 31.8067568,44.9965909 31.8189189,44.9965909 L36.7993243,44.9965909 L31.4959459,62.5602273 C31.4486486,62.7177273 31.5195946,62.8875 31.6648649,62.9631818 C31.7141892,62.9877273 31.7668919,63 31.8189189,63 C31.9216216,63 32.0222973,62.9529545 32.0878378,62.8656818 L45.6790541,44.8622727 L51.9310811,36.5529545 C52.0087838,36.4493182 52.0216216,36.3109091 51.9648649,36.195 L51.9648649,36.195 Z M32.6905405,60.9415909 L37.5783784,44.7545455 C37.6094595,44.6515909 37.5905405,44.5397727 37.5263514,44.4525 C37.4628378,44.3659091 37.3614865,44.3147727 37.2547297,44.3147727 L31.8581081,44.3147727 C31.8459459,44.3134091 31.8337838,44.3127273 31.8216216,44.3127273 L28.6939189,44.3127273 L46.9844595,20.0584091 L42.0972973,36.2454545 C42.0662162,36.3484091 42.0851351,36.4609091 42.1493243,36.5475 C42.2128378,36.6340909 42.3135135,36.6852273 42.4202703,36.6852273 L47.8135135,36.6852273 C47.827027,36.6865909 47.8398649,36.6872727 47.8533784,36.6872727 L50.9810811,36.6872727 L32.6905405,60.9415909 L32.6905405,60.9415909 Z" id="Shape" fill="#EB6345"></path>
        </g>
    </g>
</svg>